<svg width="44" height="44" viewBox="0 0 44 44" fill="none" xmlns="http://www.w3.org/2000/svg">
<g clip-path="url(#clip0_543_2814)">
<path d="M22 0C16.1666 0 10.5669 2.31928 6.44531 6.44359C2.3195 10.5695 0.00114287 16.1651 0 22C0 27.8324 2.32031 33.4321 6.44531 37.5564C10.5669 41.6807 16.1666 44 22 44C27.8334 44 33.4331 41.6807 37.5547 37.5564C41.6797 33.4321 44 27.8324 44 22C44 16.1676 41.6797 10.5679 37.5547 6.44359C33.4331 2.31928 27.8334 0 22 0Z" fill="url(#paint0_linear_543_2814)"/>
<path d="M9.95845 21.7676C16.3728 18.9736 20.6491 17.1315 22.7872 16.2415C28.8991 13.7002 30.1675 13.2588 30.9959 13.2438C31.1781 13.2409 31.5838 13.2859 31.8484 13.4999C32.0685 13.6804 32.1303 13.9245 32.1613 14.0958C32.1888 14.267 32.2266 14.6572 32.1956 14.9617C31.8656 18.4405 30.4322 26.8823 29.7035 30.7787C29.3975 32.4273 28.7891 32.9801 28.2013 33.034C26.9225 33.1516 25.9531 32.1898 24.7156 31.3789C22.7803 30.1094 21.6872 29.3195 19.8069 28.0809C17.6344 26.6496 19.0438 25.8627 20.2813 24.5771C20.6044 24.2406 26.235 19.1204 26.3416 18.656C26.3553 18.5979 26.3691 18.3813 26.2385 18.2672C26.1113 18.1528 25.9222 18.1919 25.7847 18.2229C25.5888 18.2669 22.4985 20.3115 16.5035 24.3564C15.6269 24.9593 14.8328 25.2533 14.1178 25.2378C13.3341 25.2209 11.8216 24.7937 10.6975 24.4286C9.32251 23.9807 8.22595 23.7438 8.3222 22.9831C8.37033 22.5871 8.91689 22.1818 9.95845 21.7676Z" fill="white"/>
</g>
<defs>
<linearGradient id="paint0_linear_543_2814" x1="2200" y1="0" x2="2200" y2="4400" gradientUnits="userSpaceOnUse">
<stop stop-color="#2AABEE"/>
<stop offset="1" stop-color="#229ED9"/>
</linearGradient>
<clipPath id="clip0_543_2814">
<rect width="44" height="44" fill="white"/>
</clipPath>
</defs>
</svg>
