<svg width="294" height="152" viewBox="0 0 294 152" fill="none" xmlns="http://www.w3.org/2000/svg">
<path d="M140 82C140 120.66 108.66 152 70 152C31.3401 152 0 120.66 0 82C0 43.3401 31.3401 12 70 12C108.66 12 140 43.3401 140 82ZM28 82C28 105.196 46.804 124 70 124C93.196 124 112 105.196 112 82C112 58.804 93.196 40 70 40C46.804 40 28 58.804 28 82Z" fill="#2A2A2C"/>
<rect x="164" y="68" width="25" height="4" rx="2" fill="#2A2A2C"/>
<path d="M165.004 89V78.8182H171.527V80.3643H166.849V83.1286H171.08V84.6747H166.849V89H165.004ZM173.018 89V81.3636H174.763V82.6364H174.843C174.982 82.1955 175.221 81.8558 175.559 81.6172C175.9 81.3752 176.29 81.2543 176.727 81.2543C176.827 81.2543 176.938 81.2592 177.06 81.2692C177.186 81.2758 177.291 81.2874 177.374 81.304V82.9595C177.297 82.933 177.176 82.9098 177.011 82.8899C176.848 82.8667 176.691 82.8551 176.538 82.8551C176.21 82.8551 175.915 82.9264 175.653 83.0689C175.395 83.2081 175.191 83.402 175.042 83.6506C174.893 83.8991 174.818 84.1858 174.818 84.5107V89H173.018ZM181.635 89.1491C180.87 89.1491 180.209 88.9901 179.652 88.6719C179.098 88.3504 178.672 87.8963 178.374 87.3097C178.076 86.7197 177.927 86.0253 177.927 85.2266C177.927 84.4411 178.076 83.7517 178.374 83.1584C178.676 82.5618 179.097 82.0978 179.637 81.7663C180.177 81.4316 180.812 81.2642 181.541 81.2642C182.012 81.2642 182.456 81.3404 182.873 81.4929C183.294 81.642 183.666 81.8741 183.987 82.1889C184.312 82.5038 184.567 82.9048 184.753 83.392C184.938 83.8759 185.031 84.4527 185.031 85.1222V85.674H178.772V84.4609H183.306C183.303 84.1162 183.228 83.8097 183.082 83.5412C182.936 83.2694 182.733 83.0556 182.471 82.8999C182.212 82.7441 181.911 82.6662 181.566 82.6662C181.198 82.6662 180.875 82.7557 180.596 82.9347C180.318 83.1103 180.101 83.3423 179.945 83.6307C179.793 83.9157 179.715 84.2289 179.711 84.5703V85.6293C179.711 86.0734 179.793 86.4545 179.955 86.7727C180.117 87.0876 180.345 87.3295 180.636 87.4986C180.928 87.6643 181.269 87.7472 181.66 87.7472C181.922 87.7472 182.159 87.7107 182.371 87.6378C182.583 87.5616 182.767 87.4505 182.923 87.3047C183.079 87.1589 183.197 86.9782 183.276 86.7628L184.956 86.9517C184.85 87.3958 184.648 87.7836 184.35 88.1151C184.055 88.4432 183.677 88.6984 183.216 88.8807C182.756 89.0597 182.229 89.1491 181.635 89.1491ZM189.934 89.1491C189.169 89.1491 188.507 88.9901 187.951 88.6719C187.397 88.3504 186.971 87.8963 186.673 87.3097C186.375 86.7197 186.225 86.0253 186.225 85.2266C186.225 84.4411 186.375 83.7517 186.673 83.1584C186.975 82.5618 187.395 82.0978 187.936 81.7663C188.476 81.4316 189.111 81.2642 189.84 81.2642C190.31 81.2642 190.755 81.3404 191.172 81.4929C191.593 81.642 191.964 81.8741 192.286 82.1889C192.611 82.5038 192.866 82.9048 193.051 83.392C193.237 83.8759 193.33 84.4527 193.33 85.1222V85.674H187.071V84.4609H191.605C191.601 84.1162 191.527 83.8097 191.381 83.5412C191.235 83.2694 191.031 83.0556 190.77 82.8999C190.511 82.7441 190.209 82.6662 189.865 82.6662C189.497 82.6662 189.174 82.7557 188.895 82.9347C188.617 83.1103 188.4 83.3423 188.244 83.6307C188.092 83.9157 188.014 84.2289 188.01 84.5703V85.6293C188.01 86.0734 188.092 86.4545 188.254 86.7727C188.416 87.0876 188.643 87.3295 188.935 87.4986C189.227 87.6643 189.568 87.7472 189.959 87.7472C190.221 87.7472 190.458 87.7107 190.67 87.6378C190.882 87.5616 191.066 87.4505 191.222 87.3047C191.378 87.1589 191.495 86.9782 191.575 86.7628L193.255 86.9517C193.149 87.3958 192.947 87.7836 192.649 88.1151C192.354 88.4432 191.976 88.6984 191.515 88.8807C191.055 89.0597 190.528 89.1491 189.934 89.1491Z" fill="#94969A"/>
<path d="M250.175 78.8182V89H248.634V80.3594H248.574L246.138 81.9503V80.4787L248.678 78.8182H250.175ZM253.994 87.0114V85.7685L258.394 78.8182H259.373V80.6477H258.752L255.605 85.6293V85.7088H261.635V87.0114H253.994ZM258.822 89V86.6335L258.831 86.0668V78.8182H260.288V89H258.822ZM267.057 89.169C266.271 89.1657 265.6 88.9586 265.044 88.5476C264.487 88.1366 264.061 87.5384 263.766 86.7528C263.471 85.9673 263.323 85.0211 263.323 83.9141C263.323 82.8104 263.471 81.8674 263.766 81.0852C264.064 80.303 264.492 79.7064 265.048 79.2955C265.609 78.8845 266.278 78.679 267.057 78.679C267.836 78.679 268.504 78.8861 269.061 79.3004C269.617 79.7114 270.043 80.308 270.338 81.0902C270.637 81.8691 270.786 82.8104 270.786 83.9141C270.786 85.0244 270.638 85.9723 270.343 86.7578C270.048 87.54 269.622 88.1383 269.066 88.5526C268.509 88.9635 267.839 89.169 267.057 89.169ZM267.057 87.8416C267.746 87.8416 268.285 87.5052 268.673 86.8324C269.064 86.1596 269.259 85.1868 269.259 83.9141C269.259 83.0689 269.17 82.3546 268.991 81.7713C268.815 81.1847 268.562 80.7405 268.23 80.4389C267.902 80.134 267.511 79.9815 267.057 79.9815C266.371 79.9815 265.832 80.3196 265.441 80.9957C265.05 81.6719 264.853 82.6446 264.85 83.9141C264.85 84.7625 264.937 85.4801 265.113 86.0668C265.292 86.6501 265.546 87.0926 265.874 87.3942C266.202 87.6925 266.596 87.8416 267.057 87.8416ZM272.873 89V78.8182H274.409V83.6804H274.533L278.804 78.8182H280.738L276.631 83.402L280.752 89H278.903L275.612 84.451L274.409 85.8331V89H272.873Z" fill="white"/>
<path d="M288.959 90.2727V77.5455H289.775V90.2727H288.959ZM291.51 81.4929C291.457 81.0223 291.238 80.6577 290.854 80.3991C290.469 80.1373 289.985 80.0064 289.402 80.0064C288.984 80.0064 288.623 80.0727 288.318 80.2053C288.013 80.3345 287.776 80.5135 287.607 80.7422C287.441 80.9676 287.358 81.2244 287.358 81.5128C287.358 81.7547 287.415 81.9635 287.528 82.1392C287.644 82.3149 287.794 82.4624 287.98 82.5817C288.169 82.6977 288.371 82.7955 288.586 82.875C288.802 82.9512 289.009 83.0142 289.208 83.0639L290.202 83.3224C290.527 83.402 290.86 83.5097 291.202 83.6456C291.543 83.7815 291.859 83.9605 292.151 84.1825C292.443 84.4046 292.678 84.6797 292.857 85.0078C293.039 85.3359 293.131 85.7287 293.131 86.1861C293.131 86.7628 292.981 87.2749 292.683 87.7223C292.388 88.1697 291.959 88.5227 291.395 88.7812C290.835 89.0398 290.157 89.169 289.362 89.169C288.6 89.169 287.94 89.0481 287.383 88.8061C286.827 88.5642 286.391 88.2211 286.076 87.777C285.761 87.3295 285.587 86.7992 285.554 86.1861H287.095C287.125 86.554 287.244 86.8606 287.453 87.1058C287.665 87.3478 287.935 87.5284 288.263 87.6477C288.595 87.7637 288.958 87.8217 289.352 87.8217C289.786 87.8217 290.172 87.7538 290.51 87.6179C290.852 87.4787 291.12 87.2865 291.316 87.0412C291.511 86.7926 291.609 86.5026 291.609 86.1712C291.609 85.8696 291.523 85.6226 291.351 85.4304C291.182 85.2382 290.951 85.0791 290.66 84.9531C290.371 84.8272 290.045 84.7161 289.68 84.62L288.477 84.2919C287.662 84.0698 287.015 83.7434 286.538 83.3125C286.064 82.8816 285.827 82.3116 285.827 81.6023C285.827 81.0156 285.986 80.5036 286.305 80.0661C286.623 79.6286 287.054 79.2888 287.597 79.0469C288.141 78.8016 288.754 78.679 289.437 78.679C290.126 78.679 290.734 78.8 291.261 79.0419C291.791 79.2839 292.209 79.617 292.514 80.0412C292.819 80.4621 292.978 80.946 292.991 81.4929H291.51Z" fill="#94969A"/>
</svg>
