<svg width="18" height="18" viewBox="0 0 18 18" fill="none" xmlns="http://www.w3.org/2000/svg">
<g clip-path="url(#clip0_11639_294321)">
<path d="M15.2376 3.36898C14.0901 2.85148 12.8601 2.46898 11.5739 2.25148C11.5624 2.24928 11.5506 2.2507 11.5399 2.25554C11.5293 2.26037 11.5205 2.26839 11.5146 2.27848C11.3571 2.55523 11.1816 2.91598 11.0586 3.20098C9.69444 2.99716 8.30755 2.99716 6.94337 3.20098C6.80637 2.88513 6.65188 2.57715 6.48062 2.27848C6.47482 2.26827 6.46604 2.26007 6.45545 2.25498C6.44486 2.24988 6.43297 2.24814 6.42137 2.24998C5.13587 2.46748 3.90587 2.84998 2.75762 3.36823C2.74774 3.37237 2.73937 3.37944 2.73362 3.38848C0.399622 6.81973 -0.240128 10.1662 0.0741222 13.4707C0.0749966 13.4788 0.0775088 13.4867 0.0815059 13.4937C0.0855029 13.5008 0.0909012 13.507 0.0973722 13.512C1.45967 14.5038 2.97912 15.2593 4.59212 15.747C4.60337 15.7504 4.61539 15.7504 4.62663 15.747C4.63787 15.7435 4.6478 15.7367 4.65512 15.7275C5.00222 15.2633 5.3098 14.7708 5.57462 14.2552C5.5783 14.2482 5.58042 14.2404 5.58083 14.2325C5.58125 14.2245 5.57996 14.2166 5.57704 14.2092C5.57413 14.2018 5.56966 14.1951 5.56393 14.1896C5.55821 14.1841 5.55137 14.1799 5.54387 14.1772C5.05938 13.9948 4.58994 13.7746 4.13987 13.5187C4.13179 13.5141 4.12497 13.5076 4.12004 13.4997C4.11511 13.4918 4.11222 13.4828 4.11162 13.4735C4.11103 13.4642 4.11275 13.4549 4.11663 13.4464C4.12052 13.438 4.12644 13.4306 4.13387 13.425C4.22837 13.3552 4.32287 13.2825 4.41287 13.2097C4.42097 13.2032 4.43073 13.199 4.44106 13.1977C4.45139 13.1964 4.46188 13.1979 4.47137 13.2022C7.41662 14.5252 10.6064 14.5252 13.5171 13.2022C13.5266 13.1977 13.5372 13.1959 13.5477 13.1971C13.5582 13.1983 13.5681 13.2024 13.5764 13.209C13.6664 13.2825 13.7601 13.3552 13.8554 13.425C13.8629 13.4305 13.8689 13.4377 13.8729 13.4461C13.8769 13.4545 13.8788 13.4638 13.8783 13.4731C13.8779 13.4824 13.8751 13.4914 13.8704 13.4994C13.8656 13.5073 13.8589 13.514 13.8509 13.5187C13.4024 13.7767 12.9359 13.995 12.4461 14.1765C12.4386 14.1792 12.4317 14.1835 12.426 14.1891C12.4203 14.1947 12.4158 14.2014 12.4129 14.2089C12.41 14.2163 12.4087 14.2243 12.4091 14.2323C12.4096 14.2403 12.4117 14.2481 12.4154 14.2552C12.6854 14.7705 12.9944 15.261 13.3341 15.7267C13.3412 15.7363 13.351 15.7434 13.3623 15.7472C13.3736 15.7509 13.3857 15.7511 13.3971 15.7477C15.0129 15.2615 16.5348 14.5056 17.8986 13.512C17.9053 13.5073 17.9109 13.5013 17.915 13.4943C17.9191 13.4873 17.9217 13.4796 17.9226 13.4715C18.2976 9.65098 17.2941 6.33148 15.2609 3.38998C15.2559 3.38042 15.2476 3.37297 15.2376 3.36898ZM6.01487 11.4585C5.12837 11.4585 4.39712 10.6567 4.39712 9.67348C4.39712 8.68948 5.11412 7.88848 6.01487 7.88848C6.92237 7.88848 7.64687 8.69623 7.63262 9.67348C7.63262 10.6575 6.91562 11.4585 6.01487 11.4585V11.4585ZM11.9961 11.4585C11.1089 11.4585 10.3784 10.6567 10.3784 9.67348C10.3784 8.68948 11.0946 7.88848 11.9961 7.88848C12.9036 7.88848 13.6281 8.69623 13.6139 9.67348C13.6139 10.6575 12.9044 11.4585 11.9961 11.4585V11.4585Z" fill="#969696"/>
</g>
<defs>
<clipPath id="clip0_11639_294321">
<rect width="18" height="18" fill="white"/>
</clipPath>
</defs>
</svg>
