<svg width="18" height="18" viewBox="0 0 18 18" fill="none" xmlns="http://www.w3.org/2000/svg">
<path d="M17.7321 3.70275C17.1059 3.98025 16.4331 4.16775 15.7259 4.2525C16.4556 3.81584 17.0016 3.1286 17.2619 2.319C16.5763 2.72624 15.8259 3.01289 15.0434 3.1665C14.5172 2.60465 13.8202 2.23224 13.0606 2.1071C12.3011 1.98196 11.5215 2.11109 10.8428 2.47444C10.1642 2.83778 9.62447 3.41502 9.3075 4.11652C8.99054 4.81803 8.91404 5.60456 9.08989 6.354C7.70065 6.28424 6.34161 5.92316 5.10095 5.29418C3.8603 4.66519 2.76577 3.78237 1.88839 2.703C1.58839 3.2205 1.41589 3.8205 1.41589 4.4595C1.41555 5.03474 1.55721 5.60118 1.8283 6.10855C2.09938 6.61591 2.49151 7.04853 2.96989 7.368C2.41509 7.35034 1.87254 7.20043 1.38739 6.93075V6.97575C1.38733 7.78255 1.66641 8.56453 2.17727 9.18899C2.68814 9.81346 3.39932 10.2419 4.19014 10.4017C3.67547 10.541 3.13589 10.5615 2.61214 10.4617C2.83526 11.156 3.26988 11.763 3.85516 12.1979C4.44044 12.6329 5.14707 12.8739 5.87614 12.8872C4.63851 13.8588 3.11005 14.3858 1.53664 14.3835C1.25792 14.3836 0.979444 14.3673 0.702637 14.3347C2.29974 15.3616 4.15889 15.9066 6.05764 15.9045C12.4851 15.9045 15.9989 10.581 15.9989 5.964C15.9989 5.814 15.9951 5.6625 15.9884 5.5125C16.6719 5.01823 17.2618 4.40617 17.7306 3.705L17.7321 3.70275V3.70275Z" fill="#969696"/>
</svg>
