<svg width="32" height="32" viewBox="0 0 32 32" fill="none" xmlns="http://www.w3.org/2000/svg">
<circle cx="16" cy="16" r="16" fill="black"/>
<circle cx="14.5" cy="14.5" r="6" stroke="white" stroke-width="1.5"/>
<path d="M14.125 10.75L15.1679 12.9716L17.5 13.33L15.8125 15.0584L16.2108 17.5L14.125 16.3466L12.0393 17.5L12.4375 15.0584L10.75 13.33L13.0821 12.9716L14.125 10.75Z" stroke="white" stroke-width="1.5" stroke-linecap="round" stroke-linejoin="round"/>
<path d="M12.5382 19.851C12.3447 19.4847 11.8909 19.3446 11.5247 19.5381C11.1584 19.7316 11.0184 20.1854 11.2118 20.5516L12.5382 19.851ZM20.4669 11.0912C20.0982 10.9024 19.6462 11.0483 19.4574 11.4169C19.2686 11.7856 19.4145 12.2375 19.7831 12.4263L20.4669 11.0912ZM22.75 17.2933C22.75 20.311 20.3187 22.7501 17.3286 22.7501V24.2501C21.1552 24.2501 24.25 21.1314 24.25 17.2933H22.75ZM17.3286 22.7501C15.2555 22.7501 13.4509 21.5788 12.5382 19.851L11.2118 20.5516C12.3725 22.7487 14.6745 24.2501 17.3286 24.2501V22.7501ZM19.7831 12.4263C21.5439 13.328 22.75 15.1685 22.75 17.2933H24.25C24.25 14.5871 22.7121 12.241 20.4669 11.0912L19.7831 12.4263Z" fill="white"/>
</svg>
