<svg width="20" height="20" viewBox="0 0 20 20" fill="none" xmlns="http://www.w3.org/2000/svg">
<path d="M1.875 5.625H2.625H1.875ZM1.875 15.625H1.125H1.875ZM15.625 18.125V17.375V18.125ZM4.375 18.125V18.875H4.375L4.375 18.125ZM18.125 5.62503H17.375H18.125ZM18.125 15.625H18.875H18.125ZM15.625 3.12503L15.625 3.87503L15.625 3.12503ZM4.37501 3.125L4.37501 2.375L4.37501 3.125ZM18.125 8.25C18.5392 8.25 18.875 7.91421 18.875 7.5C18.875 7.08579 18.5392 6.75 18.125 6.75V8.25ZM1.875 6.75C1.46079 6.75 1.125 7.08579 1.125 7.5C1.125 7.91421 1.46079 8.25 1.875 8.25V6.75ZM5.5 4.375C5.5 4.78921 5.83579 5.125 6.25 5.125C6.66421 5.125 7 4.78921 7 4.375H5.5ZM7 1.875C7 1.46079 6.66421 1.125 6.25 1.125C5.83579 1.125 5.5 1.46079 5.5 1.875H7ZM13 4.375C13 4.78921 13.3358 5.125 13.75 5.125C14.1642 5.125 14.5 4.78921 14.5 4.375L13 4.375ZM14.5 1.875C14.5 1.46079 14.1642 1.125 13.75 1.125C13.3358 1.125 13 1.46079 13 1.875L14.5 1.875ZM1.125 5.625L1.125 15.625H2.625L2.625 5.625H1.125ZM15.625 17.375L4.375 17.375L4.375 18.875L15.625 18.875V17.375ZM17.375 5.62503V15.625H18.875V5.62503H17.375ZM15.625 2.37503L4.37501 2.375L4.375 3.875L15.625 3.87503L15.625 2.37503ZM18.875 5.62503C18.875 3.8301 17.4199 2.37503 15.625 2.37503L15.625 3.87503C16.5915 3.87503 17.375 4.65853 17.375 5.62503H18.875ZM2.625 5.625C2.625 4.6585 3.4085 3.875 4.375 3.875L4.37501 2.375C2.58008 2.375 1.125 3.83008 1.125 5.625H2.625ZM1.125 15.625C1.125 17.4199 2.58007 18.875 4.375 18.875L4.375 17.375C3.4085 17.375 2.625 16.5915 2.625 15.625H1.125ZM15.625 18.875C17.4199 18.875 18.875 17.4199 18.875 15.625L17.375 15.625C17.375 16.5915 16.5915 17.375 15.625 17.375V18.875ZM18.125 6.75H1.875V8.25H18.125V6.75ZM7 4.375V1.875H5.5V4.375H7ZM14.5 4.375L14.5 1.875L13 1.875L13 4.375L14.5 4.375Z" fill="white"/>
</svg>
