<svg width="32" height="32" viewBox="0 0 32 32" fill="none" xmlns="http://www.w3.org/2000/svg">
<circle cx="16" cy="16" r="16" fill="black"/>
<path d="M23.3125 16C23.3125 17.4463 22.8836 18.8601 22.0801 20.0626C21.2766 21.2651 20.1346 22.2024 18.7984 22.7559C17.4622 23.3093 15.9919 23.4541 14.5734 23.172C13.1549 22.8898 11.852 22.1934 10.8293 21.1707C9.80661 20.148 9.11016 18.8451 8.82801 17.4266C8.54585 16.0081 8.69067 14.5378 9.24413 13.2016C9.7976 11.8654 10.7349 10.7234 11.9374 9.91988C13.1399 9.11637 14.5537 8.6875 16 8.6875L16 16H23.3125Z" stroke="white" stroke-width="1.125"/>
<path d="M21.1707 10.8293C20.148 9.80661 18.8451 9.11016 17.4266 8.82801C16.9545 8.73411 16.4767 8.68749 16 8.6875L16 16L23.3125 16C23.3125 15.5233 23.2659 15.0455 23.172 14.5734C22.8898 13.1549 22.1934 11.852 21.1707 10.8293Z" stroke="white" stroke-width="1.125"/>
</svg>
