<svg id='icon--money-in-offers' viewBox="0 0 18 18" fill="none" xmlns="http://www.w3.org/2000/svg">
<path d="M2.70703 12.375V12.375C2.70703 13.4105 3.5465 14.25 4.58203 14.25H12.5233C13.3996 14.25 14.2238 14.6666 14.7435 15.3722V15.3722C15.2697 16.0867 16.4027 15.7145 16.4027 14.8271V5.46196C16.4027 4.51647 15.6362 3.75 14.6907 3.75V3.75"  stroke-width="1.5"/>
<path d="M1.40235 3.75C1.40236 2.50736 2.40971 1.5 3.65235 1.5H12.0328C13.2754 1.5 14.2828 2.50736 14.2828 3.75V8.625V12.5625V14.0477C14.2828 14.2718 14.0108 14.3827 13.8541 14.2226L12.8563 13.2026C12.1508 12.4814 11.1845 12.0749 10.1757 12.0749H7.84256H3.65235C2.40971 12.0749 1.40235 11.0676 1.40235 9.82495L1.40235 3.75Z"  stroke-width="1.5"/>
<path d="M9 5.17857V5.17857C9 4.38959 8.36041 3.75 7.57143 3.75H7.40771C6.63025 3.75 6 4.38025 6 5.15771V5.15771C6 5.69507 6.30592 6.18555 6.7885 6.42192L8.22558 7.12579C8.69954 7.35794 9 7.83966 9 8.36743V8.36743C9 9.131 8.381 9.75 7.61743 9.75H7.42857C6.63959 9.75 6 9.11041 6 8.32143V8.32143"  stroke-width="1.5" stroke-linecap="round"/>
<path d="M7.5 3L7.5 10.5"  stroke-width="1.5" stroke-linecap="round"/>
</svg>
