<svg width="16" height="16" viewBox="0 0 16 16" fill="none" xmlns="http://www.w3.org/2000/svg">
<path d="M6 12H10" stroke="#BC401C" stroke-width="2" stroke-linecap="round" stroke-linejoin="round"/>
<path d="M6.66663 14.6667H9.33329" stroke="#BC401C" stroke-width="2" stroke-linecap="round" stroke-linejoin="round"/>
<path d="M10.06 9.33334C10.18 8.68 10.4933 8.17334 11 7.66667C11.3219 7.37034 11.5774 7.00922 11.7498 6.60706C11.9221 6.2049 12.0074 5.77081 12 5.33334C12 4.27247 11.5786 3.25505 10.8284 2.50491C10.0783 1.75476 9.06087 1.33334 8 1.33334C6.93913 1.33334 5.92172 1.75476 5.17157 2.50491C4.42143 3.25505 4 4.27247 4 5.33334C4 6 4.15333 6.82 5 7.66667C5.4827 8.10804 5.812 8.69191 5.94 9.33334" stroke="#BC401C" stroke-width="2" stroke-linecap="round" stroke-linejoin="round"/>
</svg>
