<svg id='icon--swap-horizontal' viewBox="0 0 24 24" xmlns="http://www.w3.org/2000/svg">
<path  clip-rule="evenodd" d="M12 16.6781C12 16.7753 12.0365 16.8686 12.1015 16.937L16.7599 21.8895C16.8221 21.96 16.909 22 17 22C17.091 22 17.1779 21.96 17.2401 21.8895L21.8985 16.937C21.9635 16.8686 22 16.7753 22 16.6781C22 16.5809 21.9635 16.4877 21.8985 16.4192L21.7613 16.2733C21.6968 16.2021 21.6074 16.1625 21.5143 16.1639L19.0582 16.1639L19.0582 9.36469C19.0582 9.16328 18.9046 9 18.7152 9L15.2848 9C15.0954 9 14.9418 9.16328 14.9418 9.36469L14.9418 16.1639L12.4857 16.1639C12.3926 16.1625 12.3032 16.2021 12.2387 16.2733L12.1015 16.4192C12.0365 16.4877 12 16.5809 12 16.6781ZM12 6.91252C12 6.82276 11.9635 6.73672 11.8985 6.67351L7.24012 2.10201C7.17788 2.03692 7.09096 2 7 2C6.90904 2 6.82213 2.03692 6.75988 2.10201L2.10147 6.67351C2.03653 6.73672 2 6.82276 2 6.91252C2 7.00228 2.03653 7.08832 2.10147 7.15153L2.23868 7.28618C2.30322 7.35193 2.39265 7.3885 2.48567 7.38717L4.94179 7.38717L4.94179 13.6634C4.94179 13.8493 5.09538 14 5.28483 14L8.71517 14C8.90463 14 9.05821 13.8493 9.05821 13.6634L9.05821 7.38717L11.5143 7.38717C11.6074 7.38849 11.6968 7.35193 11.7613 7.28618L11.8985 7.15153C11.9635 7.08832 12 7.00228 12 6.91252Z"/>
</svg>
