<svg id='icon--lang-korea' viewBox="0 0 24 24" fill="none" xmlns="http://www.w3.org/2000/svg">
<path d="M22.2026 19.8623H1.79742C0.804703 19.8623 0 19.0576 0 18.0649V5.93551C0 4.94284 0.804703 4.13809 1.79742 4.13809H22.2026C23.1952 4.13809 24 4.94279 24 5.93551V18.0649C24 19.0576 23.1953 19.8623 22.2026 19.8623Z" fill="#F5F5F5"/>
<path d="M14.2974 15.444C12.396 16.7116 9.82785 16.1934 8.5611 14.2953C7.92571 13.3479 8.18399 12.0606 9.13462 11.4268C10.0845 10.793 11.3677 11.0504 12.0015 12.0011C12.6353 12.9518 13.9194 13.206 14.8693 12.5755C15.8207 11.9417 16.0766 10.6544 15.4419 9.70701C16.7095 11.6082 16.1971 14.1764 14.2974 15.444Z" fill="#FF4B55"/>
<path d="M8.56104 14.2949C7.92565 13.3475 8.18393 12.0602 9.13455 11.4264C10.0845 10.7926 11.3677 11.05 12.0015 12.0007C12.6353 12.9514 13.9193 13.2056 14.8692 12.5751C15.8207 11.9413 16.0766 10.654 15.4419 9.70662C14.176 7.802 11.6087 7.29026 9.70727 8.55785C7.80762 9.8253 7.29349 12.3935 8.56104 14.2949Z" fill="#41479B"/>
<path d="M16.4025 17.0078L17.1541 15.878C17.2173 15.7831 17.1917 15.6549 17.097 15.5915L16.9064 15.4639C16.8113 15.4002 16.6826 15.4258 16.6191 15.5211L15.8665 16.6506C15.8032 16.7456 15.8289 16.874 15.9239 16.9374L16.1154 17.0653C16.2105 17.1288 16.3391 17.103 16.4025 17.0078Z" fill="#464655"/>
<path d="M17.5622 15.2654L18.3162 14.1363C18.3799 14.041 18.3539 13.912 18.2582 13.8488L18.0668 13.7223C17.9718 13.6595 17.844 13.6853 17.7807 13.7799L17.0271 14.9079C16.9636 15.0028 16.9891 15.1313 17.0841 15.1948L17.2751 15.3225C17.3701 15.386 17.4986 15.3605 17.5622 15.2654Z" fill="#464655"/>
<path d="M17.2073 17.5446L19.1212 14.6724C19.1845 14.5773 19.1588 14.4489 19.0637 14.3855L18.8715 14.2574C18.7764 14.194 18.6479 14.2197 18.5845 14.3147L16.67 17.1867C16.6066 17.2818 16.6324 17.4103 16.7275 17.4737L16.9204 17.6021C17.0155 17.6653 17.1439 17.6396 17.2073 17.5446Z" fill="#464655"/>
<path d="M18.0099 18.0805L18.7632 16.9485C18.8266 16.8532 18.8006 16.7245 18.705 16.6613L18.5134 16.5347C18.4183 16.4719 18.2904 16.4978 18.2272 16.5926L17.4734 17.7231C17.41 17.8181 17.4357 17.9466 17.5308 18.01L17.7229 18.1381C17.818 18.2015 17.9465 18.1758 18.0099 18.0805Z" fill="#464655"/>
<path d="M19.1703 16.3345L19.9224 15.2048C19.9857 15.1099 19.9601 14.9816 19.8653 14.9182L19.6742 14.7905C19.5791 14.7269 19.4504 14.7526 19.387 14.8478L18.6349 15.9775C18.5717 16.0724 18.5973 16.2007 18.6921 16.2641L18.8831 16.3918C18.9783 16.4554 19.1069 16.4298 19.1703 16.3345Z" fill="#464655"/>
<path d="M6.22125 10.2199L8.13487 7.35081C8.19825 7.2558 8.17266 7.12736 8.07759 7.06394L7.88597 6.93597C7.79091 6.8725 7.66242 6.89814 7.59895 6.99325L5.68533 9.86232C5.62191 9.95734 5.64755 10.0858 5.74261 10.1492L5.93428 10.2772C6.0293 10.3406 6.15783 10.315 6.22125 10.2199Z" fill="#464655"/>
<path d="M5.41784 9.68325L6.16915 8.55633C6.23248 8.46136 6.20693 8.33316 6.11211 8.26965L5.92151 8.14205C5.8265 8.07844 5.69787 8.10399 5.63436 8.1991L4.88216 9.32574C4.81869 9.42075 4.84428 9.54923 4.93934 9.6127L5.13087 9.74058C5.22589 9.804 5.35442 9.77836 5.41784 9.68325Z" fill="#464655"/>
<path d="M6.57887 7.94096L7.33103 6.81118C7.39431 6.71621 7.36867 6.58792 7.27374 6.52454L7.08259 6.39671C6.98748 6.33315 6.8589 6.35879 6.79543 6.454L6.04281 7.58354C5.97948 7.67855 6.00512 7.80694 6.10009 7.87032L6.29171 7.99828C6.38687 8.06189 6.51545 8.03616 6.57887 7.94096Z" fill="#464655"/>
<path d="M4.61448 9.14712L6.52689 6.27789C6.59022 6.18292 6.56458 6.05458 6.46975 5.99111L6.27864 5.86333C6.18358 5.79976 6.055 5.8254 5.99153 5.92051L4.078 8.78937C4.01458 8.88443 4.04031 9.01291 4.13537 9.07633L4.32766 9.20449C4.42262 9.26787 4.55111 9.24218 4.61448 9.14712Z" fill="#464655"/>
<path d="M5.6856 14.136L7.59894 17.0074C7.66237 17.1026 7.7909 17.1282 7.88601 17.0648L8.07758 16.9369C8.1726 16.8734 8.19819 16.745 8.13486 16.65L6.22077 13.7802C6.15749 13.6853 6.02948 13.6595 5.93446 13.7224L5.74363 13.8488C5.6481 13.912 5.62214 14.0407 5.6856 14.136Z" fill="#464655"/>
<path d="M4.8818 14.6721L6.79547 17.544C6.85889 17.6392 6.98752 17.6649 7.08263 17.6013L7.27374 17.4735C7.36861 17.4101 7.39421 17.2818 7.33093 17.1869L5.41777 14.3147C5.35434 14.2196 5.22581 14.1938 5.1307 14.2574L4.93908 14.3853C4.84411 14.4487 4.81847 14.577 4.8818 14.6721Z" fill="#464655"/>
<path d="M4.07763 15.2053L5.99148 18.0801C6.05491 18.1753 6.18358 18.201 6.27869 18.1375L6.4698 18.0097C6.56463 17.9463 6.59027 17.8181 6.52708 17.7231L4.61439 14.8478C4.55106 14.7527 4.42249 14.7269 4.32738 14.7903L4.13519 14.9184C4.04008 14.9818 4.01439 15.1102 4.07763 15.2053Z" fill="#464655"/>
<path d="M15.8668 7.35116L16.619 8.47779C16.6825 8.5729 16.8111 8.59845 16.9061 8.53484L17.0967 8.40725C17.1916 8.34378 17.2171 8.21553 17.1537 8.12056L16.4024 6.99369C16.339 6.89858 16.2105 6.87289 16.1154 6.93636L15.9239 7.06424C15.8289 7.12766 15.8033 7.2561 15.8668 7.35116Z" fill="#464655"/>
<path d="M17.027 9.08751L17.7804 10.2197C17.8437 10.3149 17.9723 10.3407 18.0674 10.2772L18.2594 10.1493C18.3545 10.0859 18.3802 9.95728 18.3167 9.86221L17.5617 8.73177C17.4984 8.63699 17.3704 8.61126 17.2754 8.67426L17.085 8.80045C16.9896 8.86373 16.9636 8.99231 17.027 9.08751Z" fill="#464655"/>
<path d="M16.67 6.81189L17.4227 7.94149C17.486 8.03659 17.6145 8.06233 17.7096 7.99891L17.902 7.87061C17.997 7.80724 18.0227 7.67889 17.9594 7.58378L17.2072 6.45409C17.1439 6.35898 17.0155 6.3332 16.9204 6.39653L16.7275 6.52492C16.6324 6.58825 16.6066 6.71678 16.67 6.81189Z" fill="#464655"/>
<path d="M17.8313 8.55696L18.5844 9.68392C18.6479 9.77885 18.7762 9.80444 18.8712 9.74111L19.0635 9.61296C19.1587 9.54953 19.1843 9.42096 19.1207 9.32585L18.3676 8.19884C18.3042 8.10392 18.1758 8.07832 18.0809 8.14165L17.8885 8.26981C17.7934 8.33327 17.7677 8.46185 17.8313 8.55696Z" fill="#464655"/>
<path d="M17.4736 6.27798L18.2272 7.4056C18.2904 7.50024 18.4183 7.52602 18.5132 7.46326L18.7048 7.3367C18.8004 7.27351 18.8264 7.14465 18.7628 7.04931L18.0099 5.92018C17.9465 5.82512 17.818 5.79948 17.723 5.86281L17.5309 5.99087C17.4357 6.05434 17.4101 6.18292 17.4736 6.27798Z" fill="#464655"/>
<path d="M18.6353 8.01705L19.3869 9.14603C19.4504 9.24124 19.579 9.26697 19.6741 9.20336L19.865 9.07577C19.9599 9.0123 19.9855 8.88391 19.9221 8.78894L19.1698 7.66146C19.1066 7.56658 18.9784 7.54085 18.8834 7.60385L18.6931 7.72994C18.5978 7.79318 18.5719 7.92185 18.6353 8.01705Z" fill="#464655"/>
</svg>
