<svg width="32" height="32" viewBox="0 0 32 32" fill="none" xmlns="http://www.w3.org/2000/svg">
<circle cx="16" cy="16" r="16" fill="black"/>
<path d="M8.125 13.1875L8.125 21.0625L9.25 21.0625L9.25 13.1875L8.125 13.1875ZM21.0625 22.75L10.9375 22.75L10.9375 23.875L21.0625 23.875L21.0625 22.75ZM22.75 13.1875L22.75 21.0625L23.875 21.0625L23.875 13.1875L22.75 13.1875ZM21.0625 10.375L10.9375 10.375L10.9375 11.5L21.0625 11.5L21.0625 10.375ZM23.875 13.1875C23.875 11.6342 22.6158 10.375 21.0625 10.375L21.0625 11.5C21.9945 11.5 22.75 12.2555 22.75 13.1875L23.875 13.1875ZM9.25 13.1875C9.25 12.2555 10.0055 11.5 10.9375 11.5L10.9375 10.375C9.3842 10.375 8.125 11.6342 8.125 13.1875L9.25 13.1875ZM8.125 21.0625C8.125 22.6158 9.3842 23.875 10.9375 23.875L10.9375 22.75C10.0055 22.75 9.25 21.9945 9.25 21.0625L8.125 21.0625ZM21.0625 23.875C22.6158 23.875 23.875 22.6158 23.875 21.0625L22.75 21.0625C22.75 21.9945 21.9945 22.75 21.0625 22.75L21.0625 23.875Z" fill="white"/>
<path d="M14.3125 16L8.6875 16L8.6875 17.125L14.3125 17.125L14.3125 16Z" fill="white"/>
<path d="M23.3125 16L17.6875 16L17.6875 17.125L23.3125 17.125L23.3125 16Z" fill="white"/>
<path d="M18.8125 10.9375C18.8125 11.2482 19.0643 11.5 19.375 11.5C19.6857 11.5 19.9375 11.2482 19.9375 10.9375L18.8125 10.9375ZM12.0625 10.9375C12.0625 11.2482 12.3143 11.5 12.625 11.5C12.9357 11.5 13.1875 11.2482 13.1875 10.9375L12.0625 10.9375ZM12.0625 10.1875L12.0625 10.9375L13.1875 10.9375L13.1875 10.1875L12.0625 10.1875ZM18.8125 10.1875L18.8125 10.9375L19.9375 10.9375L19.9375 10.1875L18.8125 10.1875ZM17.875 8.125L14.125 8.125L14.125 9.25L17.875 9.25L17.875 8.125ZM19.9375 10.1875C19.9375 9.04841 19.0141 8.125 17.875 8.125L17.875 9.25C18.3928 9.25 18.8125 9.66973 18.8125 10.1875L19.9375 10.1875ZM13.1875 10.1875C13.1875 9.66974 13.6072 9.25 14.125 9.25L14.125 8.125C12.9859 8.125 12.0625 9.04842 12.0625 10.1875L13.1875 10.1875Z" fill="white"/>
<circle cx="16" cy="17.125" r="1.6875" stroke="white" stroke-width="1.125"/>
</svg>
