<svg viewBox="0 0 24 24" id='icon--calendar'  xmlns="http://www.w3.org/2000/svg">
<path d="M2.25 6.75001H3H2.25ZM2.25 18.75H1.5H2.25ZM18.75 21.75V21V21.75ZM5.25 21.75V22.5H5.25L5.25 21.75ZM21.75 6.75003H21H21.75ZM21.75 18.75L22.5 18.75V18.75H21.75ZM18.75 3.75003L18.75 4.50003L18.75 3.75003ZM5.25001 3.75001L5.25001 3.00001L5.25001 3.75001ZM21.75 9.75C22.1642 9.75 22.5 9.41421 22.5 9C22.5 8.58579 22.1642 8.25 21.75 8.25V9.75ZM2.25 8.25C1.83579 8.25 1.5 8.58579 1.5 9C1.5 9.41421 1.83579 9.75 2.25 9.75V8.25ZM6.75 5.25C6.75 5.66421 7.08578 6 7.5 6C7.91421 6 8.25 5.66421 8.25 5.25H6.75ZM8.25 2.25C8.25 1.83579 7.91421 1.5 7.5 1.5C7.08578 1.5 6.75 1.83579 6.75 2.25H8.25ZM15.75 5.25C15.75 5.66421 16.0858 6 16.5 6C16.9142 6 17.25 5.66421 17.25 5.25L15.75 5.25ZM17.25 2.25C17.25 1.83579 16.9142 1.5 16.5 1.5C16.0858 1.5 15.75 1.83579 15.75 2.25L17.25 2.25ZM1.5 6.75001L1.5 18.75H3L3 6.75001H1.5ZM18.75 21L5.25 21L5.25 22.5L18.75 22.5V21ZM21 6.75003V18.75H22.5V6.75003H21ZM18.75 3.00003L5.25001 3.00001L5.25001 4.50001L18.75 4.50003L18.75 3.00003ZM22.5 6.75003C22.5 4.67897 20.8211 3.00004 18.75 3.00003L18.75 4.50003C19.9926 4.50004 21 5.50739 21 6.75003H22.5ZM3 6.75001C3 5.50736 4.00736 4.5 5.25001 4.50001L5.25001 3.00001C3.17894 3 1.5 4.67893 1.5 6.75001H3ZM1.5 18.75C1.5 20.8211 3.17893 22.5 5.25 22.5V21C4.00736 21 3 19.9926 3 18.75H1.5ZM18.75 22.5C20.8211 22.5 22.5 20.8211 22.5 18.75L21 18.75C21 19.9926 19.9926 21 18.75 21V22.5ZM21.75 8.25H2.25V9.75H21.75V8.25ZM8.25 5.25V2.25H6.75V5.25H8.25ZM17.25 5.25L17.25 2.25L15.75 2.25L15.75 5.25L17.25 5.25Z"/>
</svg>