<svg width="17" height="18" viewBox="0 0 17 18" fill="none" xmlns="http://www.w3.org/2000/svg">
<path fill-rule="evenodd" clip-rule="evenodd" d="M8.50033 0.666504C3.91699 0.666504 0.166992 4.4165 0.166992 8.99984C0.166992 13.5832 3.91699 17.3332 8.50033 17.3332C13.0837 17.3332 16.8337 13.5832 16.8337 8.99984C16.8337 4.4165 13.0837 0.666504 8.50033 0.666504ZM11.4582 12.1665L8.0582 10.0748C7.8082 9.9248 7.6582 9.65813 7.6582 9.36646V5.45813C7.66654 5.11646 7.94987 4.83313 8.29154 4.83313C8.6332 4.83313 8.91654 5.11646 8.91654 5.45813V9.16646L12.1165 11.0915C12.4165 11.2748 12.5165 11.6665 12.3332 11.9665C12.1499 12.2581 11.7582 12.3498 11.4582 12.1665Z" fill="#94969A"/>
</svg>
