<svg  id='icon--case' viewBox="0 0 24 24" fill="none" xmlns="http://www.w3.org/2000/svg">
<path d="M1.5 8.25L1.5 18.75L3 18.75L3 8.25L1.5 8.25ZM18.75 21L5.25 21L5.25 22.5L18.75 22.5L18.75 21ZM21 8.25003L21 18.75L22.5 18.75L22.5 8.25003L21 8.25003ZM18.75 4.50003L5.25001 4.5L5.25 6L18.75 6.00003L18.75 4.50003ZM22.5 8.25003C22.5 6.17896 20.8211 4.50003 18.75 4.50003L18.75 6.00003C19.9926 6.00003 21 7.00739 21 8.25003L22.5 8.25003ZM3 8.25C3 7.00736 4.00736 6 5.25 6L5.25001 4.5C3.17894 4.5 1.5 6.17893 1.5 8.25L3 8.25ZM1.5 18.75C1.5 20.8211 3.17893 22.5 5.25 22.5L5.25 21C4.00736 21 3 19.9926 3 18.75L1.5 18.75ZM18.75 22.5C20.8211 22.5 22.5 20.8211 22.5 18.75L21 18.75C21 19.9926 19.9926 21 18.75 21L18.75 22.5Z" fill="black"/>
<path d="M9.75 12L2.25 12L2.25 13.5L9.75 13.5L9.75 12Z" fill="black"/>
<path d="M21.75 12L14.25 12L14.25 13.5L21.75 13.5L21.75 12Z" fill="black"/>
<path d="M15.75 5.24999C15.75 5.66421 16.0858 5.99999 16.5 5.99999C16.9142 5.99999 17.25 5.66421 17.25 5.24999L15.75 5.24999ZM6.75 5.25C6.75 5.66421 7.08579 6 7.5 6C7.91421 6 8.25 5.66421 8.25 5.25L6.75 5.25ZM16.5 4.25L17.25 4.25L16.5 4.25ZM6.75 4.25L6.75 5.25L8.25 5.25L8.25 4.25L6.75 4.25ZM15.75 4.25L15.75 5.24999L17.25 5.24999L17.25 4.25L15.75 4.25ZM14.5 1.5L9.5 1.5L9.5 3L14.5 3L14.5 1.5ZM17.25 4.25C17.25 2.73122 16.0188 1.5 14.5 1.5L14.5 3C15.1904 3 15.75 3.55964 15.75 4.25L17.25 4.25ZM8.25 4.25C8.25 3.55965 8.80964 3 9.5 3L9.5 1.5C7.98122 1.5 6.75 2.73122 6.75 4.25L8.25 4.25Z" fill="black"/>
<circle cx="12" cy="13.5" r="2.25" stroke="black" stroke-width="1.5"/>
</svg>
