<svg id='icon--life-buoy' viewBox="0 0 25 24" fill="none" xmlns="http://www.w3.org/2000/svg">
<path d="M12.5 22C18.0228 22 22.5 17.5228 22.5 12C22.5 6.47715 18.0228 2 12.5 2C6.97715 2 2.5 6.47715 2.5 12C2.5 17.5228 6.97715 22 12.5 22Z"  stroke-width="2" stroke-linecap="round" stroke-linejoin="round"/>
<path d="M12.5 16C14.7091 16 16.5 14.2091 16.5 12C16.5 9.79086 14.7091 8 12.5 8C10.2909 8 8.5 9.79086 8.5 12C8.5 14.2091 10.2909 16 12.5 16Z"  stroke-width="2" stroke-linecap="round" stroke-linejoin="round"/>
<path d="M5.42969 4.92999L9.66969 9.16999"  stroke-width="2" stroke-linecap="round" stroke-linejoin="round"/>
<path d="M15.3301 14.83L19.5701 19.07"  stroke-width="2" stroke-linecap="round" stroke-linejoin="round"/>
<path d="M15.3301 9.16999L19.5701 4.92999"  stroke-width="2" stroke-linecap="round" stroke-linejoin="round"/>
<path d="M15.3301 9.17L18.8601 5.64"  stroke-width="2" stroke-linecap="round" stroke-linejoin="round"/>
<path d="M5.42969 19.07L9.66969 14.83"  stroke-width="2" stroke-linecap="round" stroke-linejoin="round"/>
</svg>
