<svg id='icon--my-active-offers' viewBox="0 0 18 18" fill="none" xmlns="http://www.w3.org/2000/svg">
<path d="M2.70703 12.375V12.375C2.70703 13.4105 3.5465 14.25 4.58203 14.25H12.5233C13.3996 14.25 14.2238 14.6666 14.7435 15.3722V15.3722C15.2697 16.0867 16.4027 15.7145 16.4027 14.8271V5.46196C16.4027 4.51647 15.6362 3.75 14.6907 3.75V3.75" stroke-width="1.5"/>
<path d="M1.40235 3.75C1.40236 2.50736 2.40971 1.5 3.65235 1.5H12.0328C13.2754 1.5 14.2828 2.50736 14.2828 3.75V8.625V12.5625V14.0477C14.2828 14.2718 14.0108 14.3827 13.8541 14.2226L12.8563 13.2026C12.1508 12.4814 11.1845 12.0749 10.1757 12.0749H7.84256H3.65235C2.40971 12.0749 1.40235 11.0676 1.40235 9.82495L1.40235 3.75Z" stroke-width="1.5"/>
<line x1="0.75" y1="-0.75" x2="4.5" y2="-0.75" transform="matrix(-3.99103e-08 -1 -1 4.78742e-08 7.24316 10.4062)" stroke-width="1.5" stroke-linecap="round"/>
<ellipse rx="0.5625" ry="0.5625" transform="matrix(1 0 0 -1 7.80566 3.9375)" fill="white"/>
</svg>
