<svg width="20" height="21" viewBox="0 0 20 21" fill="none" xmlns="http://www.w3.org/2000/svg">
<g clip-path="url(#clip0_12220_267701)">
<path d="M10 20.5C15.5228 20.5 20 16.0228 20 10.5C20 4.97715 15.5228 0.5 10 0.5C4.47715 0.5 0 4.97715 0 10.5C0 16.0228 4.47715 20.5 10 20.5Z" fill="#627EEA"/>
<path d="M10.3125 3V8.5625L15 10.625L10.3125 3Z" fill="white" fill-opacity="0.602"/>
<path d="M10.3125 3L5.625 10.625L10.3125 8.5625V3Z" fill="white"/>
<path d="M10.3125 14.25V18L15 11.5L10.3125 14.25Z" fill="white" fill-opacity="0.602"/>
<path d="M10.3125 18V14.25L5.625 11.5L10.3125 18Z" fill="white"/>
<path d="M10.3125 13.375L15 10.625L10.3125 8.5625V13.375Z" fill="white" fill-opacity="0.2"/>
<path d="M5.625 10.625L10.3125 13.375V8.5625L5.625 10.625Z" fill="white" fill-opacity="0.602"/>
</g>
<defs>
<clipPath id="clip0_12220_267701">
<rect width="20" height="20" fill="white" transform="translate(0 0.5)"/>
</clipPath>
</defs>
</svg>
