<svg id='icon--offers-two' viewBox="0 0 19 18" xmlns="http://www.w3.org/2000/svg">
<path fill-rule="evenodd" clip-rule="evenodd" d="M12.8075 15C12.6107 14.9992 12.4222 14.9211 12.2825 14.7825L10.0325 12.57C9.19676 11.7332 8.06517 11.259 6.8825 11.25H4.25C3.00736 11.25 2 10.2426 2 9V7.5C2 6.25736 3.00736 5.25 4.25 5.25H6.8825C8.07817 5.25094 9.22506 4.77599 10.07 3.93L12.32 1.7175C12.4597 1.57894 12.6482 1.50083 12.845 1.5H13.25C13.6642 1.5 14 1.83579 14 2.25V14.25C14 14.6642 13.6642 15 13.25 15H12.8075ZM12.5 12.8927L11.0887 11.5049C9.97489 10.3923 8.46832 9.76197 6.89386 9.75004V9.75H6.8825H4.25C3.83579 9.75 3.5 9.41421 3.5 9V7.5C3.5 7.08579 3.83579 6.75 4.25 6.75L6.88132 6.75L6.88197 6.75H6.8825C8.4739 6.75094 10.0004 6.11962 11.1262 4.99509L12.5 3.64422V12.8927ZM16.9998 8.28729C16.9998 9.03409 16.8254 9.76075 16.5029 10.3582C16.4429 10.4486 16.3585 10.5 16.27 10.5C16.1815 10.5 16.097 10.4486 16.037 10.3582L15.5898 9.73692C15.4859 9.59108 15.4703 9.36377 15.5526 9.19331C15.8256 8.61737 15.8256 7.87092 15.5526 7.29498C15.4703 7.12452 15.4859 6.89721 15.5898 6.75137L16.037 6.1301C16.1008 6.04087 16.1889 5.99377 16.2793 6.00066C16.3673 6.0149 16.4477 6.07694 16.5029 6.17324C16.8319 6.78246 17.0066 7.52574 16.9998 8.28729ZM8.74916 15.3594V15.7706C8.74916 15.9663 8.60763 16.125 8.43304 16.125H7.21283C6.9896 16.125 6.78295 15.9929 6.6691 15.7777L5.2276 13.0839C5.1109 12.8667 5.03356 12.6258 5 12.375H6.54266C6.8827 12.373 7.21986 12.4452 7.53527 12.5877L7.8008 14.5371C7.88884 14.7521 8.0667 14.9036 8.27498 14.9412L8.48362 14.9837C8.6457 15.0127 8.76105 15.1759 8.74916 15.3594Z"/>
</svg>
