<svg id='icon--money-in-bids' viewBox="0 0 18 18" fill="none" xmlns="http://www.w3.org/2000/svg">
<path d="M3.16353 11.7075L3.16353 16.5348M1.11196 14.4832L3.15998 16.5312L5.208 14.4832"  stroke-width="1.5" stroke-linecap="round" stroke-linejoin="round"/>
<path d="M14.0864 6.29479L14.0864 1.46757M12.0348 3.51914L14.0828 1.47112L16.1309 3.51914"  stroke-width="1.5" stroke-linecap="round" stroke-linejoin="round"/>
<path d="M6.55273 16.4863H12.2624V16.4863C14.576 16.4863 16.4515 14.6108 16.4515 12.2972V7.27026"  stroke-width="1.5" stroke-linecap="round"/>
<path d="M10.6484 1.46739H5.62148V1.46739C3.30789 1.46739 1.43235 3.34293 1.43235 5.65653V10.0008"  stroke-width="1.5" stroke-linecap="round"/>
<path d="M11.25 7.03571V7.03571C11.25 6.04949 10.4505 5.25 9.46429 5.25H8.45889C7.5151 5.25 6.75 6.0151 6.75 6.95889V6.95889C6.75 7.65329 7.1702 8.27865 7.81311 8.54106L10.2059 9.51771C10.8373 9.77543 11.25 10.3896 11.25 11.0716V11.0716C11.25 11.9986 10.4986 12.75 9.57163 12.75H8.53571C7.54949 12.75 6.75 11.9505 6.75 10.9643V10.9643"  stroke-width="1.5" stroke-linecap="round"/>
<path d="M9 3.75L9 14.25"  stroke-width="1.5" stroke-linecap="round"/>
</svg>
