<svg viewBox="0 0 20 20" id="icon--date" fill="none" xmlns="http://www.w3.org/2000/svg">
<path fill-rule="evenodd" clip-rule="evenodd" d="M15.8333 3.33317H15V2.49984C15 2.0415 14.625 1.6665 14.1667 1.6665C13.7083 1.6665 13.3333 2.0415 13.3333 2.49984V3.33317H6.66667V2.49984C6.66667 2.0415 6.29167 1.6665 5.83333 1.6665C5.375 1.6665 5 2.0415 5 2.49984V3.33317H4.16667C3.24167 3.33317 2.50833 4.08317 2.50833 4.99984L2.5 16.6665C2.5 17.5832 3.24167 18.3332 4.16667 18.3332H15.8333C16.75 18.3332 17.5 17.5832 17.5 16.6665V4.99984C17.5 4.08317 16.75 3.33317 15.8333 3.33317ZM15.8333 15.8332C15.8333 16.2915 15.4583 16.6665 15 16.6665H5C4.54167 16.6665 4.16667 16.2915 4.16667 15.8332V7.49984H15.8333V15.8332ZM5.83333 9.1665H7.5V10.8332H5.83333V9.1665ZM9.16667 9.1665H10.8333V10.8332H9.16667V9.1665ZM12.5 9.1665H14.1667V10.8332H12.5V9.1665Z" fill="#BC401C"/>
</svg>
