<svg id='icon--lang-japan' viewBox="0 0 24 24" fill="none" xmlns="http://www.w3.org/2000/svg">
<path d="M22.2026 19.8623H1.79742C0.804703 19.8623 0 19.0576 0 18.0649V5.93551C0 4.94284 0.804703 4.13809 1.79742 4.13809H22.2026C23.1952 4.13809 24 4.94279 24 5.93551V18.0649C24 19.0576 23.1953 19.8623 22.2026 19.8623Z" fill="#F5F5F5"/>
<path d="M14.2974 15.444C12.396 16.7116 9.82785 16.1934 8.5611 14.2953C7.92571 13.3479 8.18399 12.0606 9.13462 11.4268C10.0845 10.793 11.3677 11.0504 12.0015 12.0011C12.6353 12.9518 13.9194 13.206 14.8693 12.5755C15.8207 11.9417 16.0766 10.6544 15.4419 9.70701C16.7095 11.6082 16.1971 14.1764 14.2974 15.444Z" fill="#FF4B55"/>
<path d="M8.56104 14.2949C7.92565 13.3475 8.18393 12.0602 9.13455 11.4264C10.0845 10.7926 11.3677 11.05 12.0015 12.0007C12.6353 12.9514 13.9193 13.2056 14.8692 12.5751C15.8207 11.9413 16.0766 10.654 15.4419 9.70662C14.176 7.802 11.6087 7.29026 9.70727 8.55785C7.80762 9.8253 7.29349 12.3935 8.56104 14.2949Z" fill="#FF4B55"/>
</svg>
