<svg id='icon--money' viewBox="0 0 24 24" fill="none" xmlns="http://www.w3.org/2000/svg">
<path d="M22 12C22 13.9778 21.4135 15.9112 20.3147 17.5557C19.2159 19.2002 17.6541 20.4819 15.8268 21.2388C13.9996 21.9957 11.9889 22.1937 10.0491 21.8079C8.10929 21.422 6.32746 20.4696 4.92893 19.0711C3.53041 17.6725 2.578 15.8907 2.19215 13.9509C1.80629 12.0111 2.00433 10.0004 2.7612 8.17317C3.51808 6.3459 4.79981 4.78412 6.4443 3.6853C8.08879 2.58649 10.0222 2 12 2" stroke-width="1.5"/>
<path d="M12 2C12.6519 2 13.3053 2.06374 13.9509 2.19215C15.8907 2.578 17.6725 3.53041 19.0711 4.92894C20.4696 6.32746 21.422 8.10929 21.8078 10.0491C21.9363 10.6947 22 11.3481 22 12" stroke-width="1.5"/>
<circle cx="12" cy="12" r="7" stroke-width="1.5"/>
<path d="M16 12C16 9.79086 14.2091 8 12 8" stroke-width="1.5"/>
</svg>
