<svg id='icon--case-white' viewBox="0 0 18 18" fill="none" xmlns="http://www.w3.org/2000/svg">
<path fill-rule="evenodd" clip-rule="evenodd" d="M15.75 14.0625L15.75 6.18752C15.75 5.25554 14.9945 4.50002 14.0625 4.50002L3.9375 4.5C3.00552 4.5 2.25 5.25552 2.25 6.1875L2.25 14.0625C2.25 14.9945 3.00552 15.75 3.9375 15.75L14.0625 15.75C14.9945 15.75 15.75 14.9945 15.75 14.0625ZM16.875 6.18752L16.875 14.0625C16.875 15.6158 15.6158 16.875 14.0625 16.875L3.9375 16.875C2.3842 16.875 1.125 15.6158 1.125 14.0625L1.125 6.1875C1.125 4.6342 2.3842 3.375 3.93751 3.375L14.0625 3.37502C15.6158 3.37502 16.875 4.63422 16.875 6.18752Z" fill="white"/>
<path fill-rule="evenodd" clip-rule="evenodd" d="M1.6875 9L7.3125 9.00001L7.3125 10.125L1.6875 10.125L1.6875 9Z" fill="white"/>
<path fill-rule="evenodd" clip-rule="evenodd" d="M10.6875 9L16.3125 9.00001L16.3125 10.125L10.6875 10.125L10.6875 9Z" fill="white"/>
<path fill-rule="evenodd" clip-rule="evenodd" d="M10.875 1.125C12.0141 1.125 12.9375 2.04841 12.9375 3.1875L12.9375 3.93749C12.9375 4.24815 12.6857 4.49999 12.375 4.49999C12.0643 4.49999 11.8125 4.24815 11.8125 3.93749L11.8125 3.1875C11.8125 2.66973 11.3928 2.25 10.875 2.25L7.125 2.25C6.60723 2.25 6.1875 2.66973 6.1875 3.1875L6.1875 3.9375C6.1875 4.24816 5.93566 4.5 5.625 4.5C5.31434 4.5 5.0625 4.24816 5.0625 3.9375L5.0625 3.1875C5.0625 2.04841 5.98591 1.125 7.125 1.125L10.875 1.125Z" fill="white"/>
<path fill-rule="evenodd" clip-rule="evenodd" d="M9 9C8.37868 9 7.875 9.50368 7.875 10.125C7.875 10.7463 8.37868 11.25 9 11.25C9.62132 11.25 10.125 10.7463 10.125 10.125C10.125 9.50368 9.62132 9 9 9ZM6.75 10.125C6.75 8.88236 7.75736 7.875 9 7.875C10.2426 7.875 11.25 8.88236 11.25 10.125C11.25 11.3676 10.2426 12.375 9 12.375C7.75736 12.375 6.75 11.3676 6.75 10.125Z" fill="white"/>
</svg>
