<svg  id='icon--user-profile' viewBox="0 0 24 24"  xmlns="http://www.w3.org/2000/svg">
<path fill-rule="evenodd" clip-rule="evenodd" d="M11.9996 3C9.51357 3 7.49824 5.01472 7.49824 7.5C7.49824 9.98528 9.51357 12 11.9996 12C14.4856 12 16.501 9.98528 16.501 7.5C16.501 5.01472 14.4856 3 11.9996 3ZM19.2022 16.284L20.9037 19.695C21.0441 19.9736 21.0302 20.305 20.867 20.5708C20.7038 20.8367 20.4145 20.9991 20.1025 21H3.89755C3.58552 20.9991 3.29623 20.8367 3.133 20.5708C2.96978 20.305 2.95589 19.9736 3.09631 19.695L4.79782 16.284C5.56099 14.7615 7.11853 13.8001 8.82204 13.8H15.178C16.8815 13.8001 18.439 14.7615 19.2022 16.284Z" />
</svg>
