<svg  id='icon--lang-english' viewBox="0 0 24 24" fill="none" xmlns="http://www.w3.org/2000/svg">
<path d="M22.2026 4.1377H1.79742C0.804703 4.1377 0 4.9424 0 5.93512V18.0644C0 19.0571 0.804703 19.8619 1.79742 19.8619H22.2026C23.1952 19.8619 24 19.0572 24 18.0644V5.93512C24 4.9424 23.1953 4.1377 22.2026 4.1377Z" fill="#41479B"/>
<path d="M23.9751 5.63851C23.8335 4.78731 23.094 4.13818 22.2026 4.13818H21.7349L14.069 9.1607V4.13823H9.93103V9.16075L2.26509 4.13823H1.79742C0.906 4.13823 0.166547 4.78731 0.0248906 5.63856L6.57698 9.93137H0V14.0693H6.57698L0.0248906 18.362C0.166547 19.2132 0.906 19.8624 1.79742 19.8624H2.26509L9.93103 14.8398V19.8624H14.069V14.8398L21.7349 19.8624H22.2026C23.094 19.8624 23.8335 19.2133 23.9751 18.362L17.423 14.0692H24V9.93128H17.423L23.9751 5.63851Z" fill="#F5F5F5"/>
<path d="M13.2414 4.1377H10.7586V10.7584H0V13.2411H10.7586V19.8618H13.2414V13.2411H24V10.7584H13.2414V4.1377Z" fill="#FF4B55"/>
<path d="M1.1629 19.7461L9.90898 14.0688H8.38892L0.433105 19.2332C0.627777 19.4604 0.877949 19.6384 1.1629 19.7461Z" fill="#FF4B55"/>
<path d="M16.237 14.0688H14.7169L23.188 19.5675C23.425 19.4118 23.6228 19.2016 23.7639 18.9546L16.237 14.0688Z" fill="#FF4B55"/>
<path d="M0.189697 5.13172L7.58329 9.93111H9.10335L0.725291 4.49268C0.500338 4.66011 0.31626 4.87902 0.189697 5.13172Z" fill="#FF4B55"/>
<path d="M15.5884 9.93094L23.5588 4.75711C23.362 4.53066 23.1098 4.35366 22.8229 4.24805L14.0684 9.93094H15.5884Z" fill="#FF4B55"/>
</svg>
