<svg id='icon--lang-china' viewBox="0 0 24 24" fill="none" xmlns="http://www.w3.org/2000/svg">
<path d="M22.2026 4.23535H1.79742C0.804703 4.23535 0 5.03009 0 6.01051V17.9896C0 18.97 0.804703 19.7648 1.79742 19.7648H22.2026C23.1952 19.7648 24 18.97 24 17.9896V6.01051C24 5.03009 23.1953 4.23535 22.2026 4.23535Z" fill="#DE4B4B"/>
<path d="M3.98555 6.59679L4.38005 7.77963L5.62692 7.78929C5.78836 7.79051 5.8553 7.99657 5.72541 8.09243L4.72238 8.8331L5.09845 10.0219C5.14711 10.1759 4.97189 10.3031 4.84055 10.2093L3.82617 9.48419L2.8118 10.2093C2.68045 10.3031 2.50523 10.1758 2.55389 10.0219L2.92997 8.83305L1.92694 8.09243C1.79705 7.99652 1.86398 7.79051 2.02542 7.78929L3.2723 7.77963L3.6668 6.59679C3.71789 6.44365 3.9345 6.44365 3.98555 6.59679Z" fill="#FFE15A"/>
<path d="M8.5131 6.8878L8.79599 7.27348L9.25251 7.1307C9.31162 7.11223 9.36023 7.17964 9.32404 7.22984L9.04457 7.61802L9.32141 8.00806C9.35727 8.05855 9.3082 8.12563 9.24923 8.10674L8.79365 7.96091L8.50823 8.34477C8.47129 8.39445 8.3923 8.36849 8.39207 8.30661L8.38996 7.82825L7.93668 7.67539C7.87799 7.65556 7.87827 7.5725 7.9371 7.55309L8.39132 7.40328L8.39666 6.92497C8.39732 6.86323 8.47649 6.83787 8.5131 6.8878Z" fill="#FFE15A"/>
<path d="M6.79133 5.73798L7.26684 5.78963L7.46971 5.35646C7.49601 5.3004 7.57855 5.31001 7.59116 5.37062L7.68894 5.83881L8.1636 5.89787C8.22505 5.90551 8.24141 5.98698 8.18765 6.01777L7.77257 6.25543L7.86308 6.72512C7.8748 6.78596 7.80238 6.82665 7.75649 6.78507L7.40216 6.46374L6.98348 6.69493C6.92929 6.72488 6.86812 6.66854 6.89352 6.61205L7.0896 6.17574L6.74029 5.84893C6.69515 5.80684 6.72979 5.73132 6.79133 5.73798Z" fill="#FFE15A"/>
<path d="M7.54305 10.3737L7.2602 10.7594L6.80369 10.6167C6.74458 10.5982 6.69597 10.6655 6.73216 10.7158L7.01163 11.104L6.73478 11.494C6.69892 11.5445 6.748 11.6116 6.80697 11.5927L7.2625 11.4469L7.54792 11.8307C7.58486 11.8804 7.66384 11.8544 7.66408 11.7926L7.66619 11.3142L8.11947 11.1613C8.17816 11.1415 8.17788 11.0584 8.11905 11.039L7.66483 10.8892L7.65948 10.4109C7.65873 10.3491 7.57966 10.3237 7.54305 10.3737Z" fill="#FFE15A"/>
<path d="M9.26472 9.29315L8.78917 9.34481L8.58629 8.91164C8.56 8.85557 8.4775 8.86518 8.46484 8.92579L8.36701 9.39398L7.89236 9.45304C7.8309 9.46068 7.81455 9.54215 7.86831 9.57295L8.28339 9.81061L8.19287 10.2803C8.18115 10.3411 8.25358 10.3818 8.29947 10.3402L8.65379 10.0189L9.07248 10.2501C9.12667 10.2801 9.18784 10.2237 9.16243 10.1672L8.96636 9.73092L9.31567 9.40411C9.361 9.36201 9.32636 9.2865 9.26472 9.29315Z" fill="#FFE15A"/>
</svg>
