<svg id='icon--subtract' viewBox="0 0 18 18" fill="none" xmlns="http://www.w3.org/2000/svg">
<path fill-rule="evenodd" clip-rule="evenodd" d="M9 18C13.9706 18 18 13.9706 18 9C18 4.02944 13.9706 0 9 0C4.02944 0 0 4.02944 0 9C0 13.9706 4.02944 18 9 18ZM11.0603 4C13.2811 4 14 4.7418 14 6.82454C14 8.89301 13.2298 9.24964 10.6624 9.59201C9.46855 9.74893 9.37869 9.96291 9.37869 10.4765V10.8616H7.26059V9.94864C7.26059 8.52211 8.04365 7.96576 9.54557 7.78031C9.65578 7.7664 9.76149 7.75326 9.86281 7.74067C11.3192 7.55973 11.8691 7.49141 11.8691 6.82454C11.8691 6.12553 11.4454 5.98288 10.1617 5.98288H7.6457C6.50321 5.98288 6.15661 6.38231 6.14377 7.10984H4C4 5.09843 4.80873 4 7.08087 4H11.0603ZM9.37869 11.6177V14H7.24775V11.6177H9.37869Z" fill="#C74A26"/>
</svg>
