<svg id="icon--clock-red" viewBox="0 0 20 20" fill="none" xmlns="http://www.w3.org/2000/svg">
<path fill-rule="evenodd" clip-rule="evenodd" d="M10.0001 1.6665C5.41675 1.6665 1.66675 5.4165 1.66675 9.99984C1.66675 14.5832 5.41675 18.3332 10.0001 18.3332C14.5834 18.3332 18.3334 14.5832 18.3334 9.99984C18.3334 5.4165 14.5834 1.6665 10.0001 1.6665ZM12.9584 13.1665L9.55842 11.0748C9.30842 10.9248 9.15842 10.6582 9.15842 10.3665V6.45817C9.16675 6.1165 9.45008 5.83317 9.79175 5.83317C10.1334 5.83317 10.4167 6.1165 10.4167 6.45817V10.1665L13.6167 12.0915C13.9167 12.2748 14.0167 12.6665 13.8334 12.9665C13.6501 13.2582 13.2584 13.3498 12.9584 13.1665Z" fill="#BC401C"/>
</svg>
