<svg id='icon--premium' viewBox="0 0 18 18" fill="none" xmlns="http://www.w3.org/2000/svg">
<path d="M13.5137 3.53729C13.5638 3.46946 13.6214 3.4072 13.6757 3.34267C14.2749 2.63002 13.7779 1.5 12.8086 1.5H8.23056C7.90828 1.5 7.60148 1.63822 7.38794 1.8796L4.03458 6.9421C3.39225 7.66821 3.90776 8.8125 4.8772 8.8125H5.08772C5.95971 8.8125 6.47289 9.74429 6.08189 10.4663C6.01423 10.5913 5.9351 10.7109 5.88033 10.842L4.23747 14.7745C4.1827 14.9056 4.09939 15.0241 4.04626 15.1559C3.86807 15.5979 4.18539 16.125 4.70568 16.125C4.83995 16.125 4.97145 16.0868 5.08484 16.0149L11.9933 10.5638C12.7962 10.0547 12.4355 8.8125 11.4848 8.8125C10.6736 8.8125 10.2544 7.87477 10.7404 7.27258C10.7934 7.20698 10.8514 7.145 10.9014 7.07716L13.5137 3.53729Z" stroke-width="1.5"/>
</svg>
