<svg id='icon--pie' viewBox="0 0 24 24" fill="none" xmlns="http://www.w3.org/2000/svg">
<path d="M21.75 12C21.75 13.9284 21.1782 15.8134 20.1068 17.4168C19.0355 19.0202 17.5127 20.2699 15.7312 21.0078C13.9496 21.7458 11.9892 21.9389 10.0979 21.5627C8.20655 21.1865 6.46927 20.2579 5.10571 18.8943C3.74215 17.5307 2.81355 15.7934 2.43734 13.9021C2.06114 12.0108 2.25422 10.0504 2.99217 8.26884C3.73013 6.48726 4.97981 4.96451 6.58319 3.89317C8.18657 2.82183 10.0716 2.25 12 2.25L12 12H21.75Z"  stroke-width="1.5"/>
<path d="M18.8943 5.10571C17.5307 3.74215 15.7934 2.81355 13.9021 2.43734C13.2727 2.31214 12.6356 2.24999 12 2.25L12 12L21.75 12C21.75 11.3644 21.6879 10.7273 21.5627 10.0979C21.1864 8.20656 20.2578 6.46927 18.8943 5.10571Z"  stroke-width="1.5"/>
</svg>
