<svg width="32" height="32" viewBox="0 0 32 32" fill="none" xmlns="http://www.w3.org/2000/svg">
<circle cx="16" cy="16" r="16" fill="black"/>
<path d="M21.0359 10.6993C21.0735 10.6484 21.1162 10.6016 21.1582 10.5543C21.7896 9.84339 21.2924 8.6875 20.312 8.6875H15.734C15.4117 8.6875 15.1049 8.82572 14.8914 9.0671L11.538 14.1296C10.8957 14.8557 11.4112 16 12.3806 16H12.5911C13.482 16 13.9983 16.9725 13.5587 17.7004C13.5036 17.7916 13.4455 17.8818 13.4044 17.9801L11.7202 22.0114C11.6792 22.1097 11.6189 22.1991 11.5716 22.2945C11.3482 22.7455 11.6695 23.3125 12.2091 23.3125C12.3434 23.3125 12.4749 23.2743 12.5883 23.2024L19.4967 17.7513C20.2996 17.2422 19.9389 16 18.9882 16C18.166 16 17.7465 15.0366 18.2642 14.4357C18.3055 14.3878 18.3485 14.341 18.3861 14.2901L21.0359 10.6993Z" stroke="white" stroke-width="1.5"/>
</svg>
