<svg width="18" height="18" viewBox="0 0 18 18" fill="none" xmlns="http://www.w3.org/2000/svg">
<g clip-path="url(#clip0_11639_294327)">
<path d="M5.96473 11.2995C5.90473 11.4218 5.90473 11.5425 5.90473 11.664C5.96473 12.0518 6.30073 12.3368 6.69373 12.3315H7.66423V15.9135C7.66423 16.278 7.36123 16.581 6.99673 16.581H4.93273C4.75619 16.5793 4.58739 16.5082 4.46269 16.3833C4.33799 16.2583 4.26735 16.0893 4.26598 15.9128V12.3323H0.743983C0.197983 12.3323 -0.166517 11.7855 0.0764827 11.2995L5.29648 1.82927C5.3656 1.70456 5.46684 1.60063 5.58969 1.52826C5.71254 1.45589 5.85253 1.41772 5.99511 1.41772C6.13769 1.41772 6.27767 1.45589 6.40052 1.52826C6.52337 1.60063 6.62461 1.70456 6.69373 1.82927L8.87848 6.01802L5.96473 11.2995V11.2995ZM17.9235 11.2995L12.7035 1.82927C12.6343 1.70475 12.5331 1.60098 12.4103 1.52874C12.2875 1.4565 12.1477 1.4184 12.0052 1.4184C11.8628 1.4184 11.7229 1.4565 11.6001 1.52874C11.4774 1.60098 11.3762 1.70475 11.307 1.82927L9.06073 6.01877L11.9745 11.2988C12.0352 11.4218 12.0352 11.5433 12.0352 11.664C11.9752 12.0518 11.6385 12.3368 11.2462 12.3315H10.2742V15.9135C10.278 16.281 10.5742 16.5788 10.9417 16.581H13.1272C13.3039 16.5795 13.473 16.5087 13.598 16.3839C13.7231 16.2591 13.7943 16.0902 13.7962 15.9135V12.3323H17.2552C17.8027 12.3323 18.1657 11.7855 17.9227 11.2995H17.9235Z" fill="#969696"/>
</g>
<defs>
<clipPath id="clip0_11639_294327">
<rect width="18" height="18" fill="white"/>
</clipPath>
</defs>
</svg>
