<svg width="1683" height="869" viewBox="0 0 1683 869" fill="none" xmlns="http://www.w3.org/2000/svg">
<g opacity="0.3">
<g opacity="0.5" filter="url(#filter0_f_3114_12025)">
<ellipse cx="849.107" cy="1301.69" rx="833.501" ry="847.689" fill="#FF4015"/>
</g>
<g filter="url(#filter1_f_3114_12025)">
<circle cx="847.056" cy="1310.23" r="842.044" fill="#FF5B36"/>
<circle cx="847.056" cy="1310.23" r="840.849" stroke="#FF532D" stroke-width="2.38912"/>
</g>
<ellipse opacity="0.7" cx="847.689" cy="1313.04" rx="847.689" ry="842.014" fill="url(#paint0_radial_3114_12025)"/>
</g>
<path opacity="0.1" d="M1574.5 203L1584.09 228.912L1610 238.5L1584.09 248.088L1574.5 274L1564.91 248.088L1539 238.5L1564.91 228.912L1574.5 203Z" fill="#D9D9D9"/>
<path opacity="0.1" d="M1450 0L1465.4 41.6048L1507 57L1465.4 72.3952L1450 114L1434.6 72.3952L1393 57L1434.6 41.6048L1450 0Z" fill="#D9D9D9"/>
<path d="M834.205 114H833.735C779.997 140.566 746 195.27 746 255.162V500.072L781.251 540H884.339L921 499.601V254.533C921 194.956 887.316 140.409 834.048 114H834.205Z" fill="#121212" stroke="#656565" stroke-opacity="0.7" stroke-miterlimit="10"/>
<path d="M724.43 403.285L745 395V500L688 496.813V455.228C688 432.602 702.289 412.049 724.273 403.285H724.43Z" fill="#121212" stroke="#656565" stroke-opacity="0.7" stroke-miterlimit="10"/>
<path d="M993 707.528H974.842C925.263 707.528 885.158 667.498 885.158 618.012V540H779.842V618.012C779.842 667.498 739.737 707.528 690.158 707.528H672C780.789 775.139 887.684 774.508 993 707.528Z" fill="#121212"/>
<path d="M942.57 403.219L922 395V499L979 495.997V454.745C979 432.301 964.711 411.912 942.727 403.219H942.57Z" fill="#121212" stroke="#656565" stroke-opacity="0.7" stroke-miterlimit="10"/>
<path d="M909 195C1030.17 228.497 1119 339.21 1119 470.681C1062.83 482.79 1028.59 491.125 978.579 496" stroke="#656565" stroke-miterlimit="10"/>
<path d="M686.984 496C626.519 490.478 587.468 481.326 547 470.912C547 338.531 636.439 227.135 758 194" stroke="#656565" stroke-opacity="0.7" stroke-miterlimit="10"/>
<path d="M1115.68 430C1177.58 442.861 1201.62 467.471 1200.99 483.825C1199.42 537.967 1065.88 582.583 886 578.773" stroke="#656565" stroke-miterlimit="10"/>
<path d="M549.471 432C487.415 444.775 463.536 469.22 464.007 485.464C465.578 539.243 599.116 583.559 779 579.774" stroke="#656565" stroke-opacity="0.7" stroke-miterlimit="10"/>
<path d="M1106 554C1070.5 671.551 961.489 757 832.686 757C703.883 757 596.128 672.495 560 556.046" stroke="#656565" stroke-opacity="0.7" stroke-miterlimit="10"/>
<path d="M673 708H691.184C740.836 708 781 667.857 781 618.231V540" stroke="#656565" stroke-opacity="0.7" stroke-miterlimit="10"/>
<path d="M832.5 326C851.554 326 867 310.33 867 291C867 271.67 851.554 256 832.5 256C813.446 256 798 271.67 798 291C798 310.33 813.446 326 832.5 326Z" stroke="#656565" stroke-opacity="0.7" stroke-miterlimit="10"/>
<defs>
<filter id="filter0_f_3114_12025" x="6.04949" y="444.444" width="1686.12" height="1714.49" filterUnits="userSpaceOnUse" color-interpolation-filters="sRGB">
<feFlood flood-opacity="0" result="BackgroundImageFix"/>
<feBlend mode="normal" in="SourceGraphic" in2="BackgroundImageFix" result="shape"/>
<feGaussianBlur stdDeviation="4.77824" result="effect1_foregroundBlur_3114_12025"/>
</filter>
<filter id="filter1_f_3114_12025" x="2.62309" y="465.798" width="1688.87" height="1688.87" filterUnits="userSpaceOnUse" color-interpolation-filters="sRGB">
<feFlood flood-opacity="0" result="BackgroundImageFix"/>
<feBlend mode="normal" in="SourceGraphic" in2="BackgroundImageFix" result="shape"/>
<feGaussianBlur stdDeviation="1.19456" result="effect1_foregroundBlur_3114_12025"/>
</filter>
<radialGradient id="paint0_radial_3114_12025" cx="0" cy="0" r="1" gradientUnits="userSpaceOnUse" gradientTransform="translate(847.689 1087.46) rotate(90) scale(820.023 670.846)">
<stop stop-opacity="0"/>
<stop offset="0.177083" stop-color="#1A0303" stop-opacity="0.51"/>
<stop offset="1" stop-color="#250202"/>
</radialGradient>
</defs>
</svg>
